<?xml version="1.0" encoding="UTF-8"?>
<svg id="Calque_2" data-name="Calque 2" xmlns="http://www.w3.org/2000/svg" viewBox="0 0 331.7 311.6">
  <defs>
    <style>
      .cls-1 {
        fill: #acddf6;
      }

      .cls-2 {
        fill: #4269b1;
      }

      .cls-3 {
        fill: #28337e;
      }

      .cls-4 {
        fill: #adddf6;
      }
    </style>
  </defs>
  <g id="calque_2" data-name="calque 2">
    <rect class="cls-2" width="331.7" height="311.6" rx="8.5" ry="8.5"/>
    <path class="cls-3" d="M229.05,130.9l-48.09,43.62c-1.88,1.7-2.15,4.56-.62,6.58l68.92,91.37c1.53,2.02,1.26,4.88-.62,6.58l-31.31,28.4c-2.13,1.94-5.47,1.62-7.2-.68l-67.84-89.95c-1.73-2.3-5.07-2.61-7.2-.68l-46.67,42.34c-2.69,2.44-7.02,1.2-8.01-2.3C57.43,174.87,34.44,93.6,11.5,12.35c-1.18-4.19,3.29-7.73,7.09-5.62l209.54,116.25c2.93,1.63,3.4,5.66.91,7.91Z"/>
    <g>
      <path class="cls-1" d="M74.61,163.96h-9.58v-48.5c0-7.9,4.06-13.2,12.59-13.2,7.63,0,11.05,4.31,13.32,11.23l16,38.71c.65,1.44,1.71,2.51,3.49,2.51,2.03,0,3.25-1.35,3.25-3.41v-47.96h9.67v48.41c0,7.99-4.14,13.29-12.59,13.29-7.63,0-11.13-4.31-13.4-11.23l-16-38.71c-.73-1.8-1.71-2.6-3.41-2.6-2.19,0-3.33,1.35-3.33,3.5v47.96Z"/>
      <path class="cls-1" d="M166.06,103.33c12.35,0,17.62,8.44,17.62,18.14,0,7.54-3.25,15.63-11.62,18.23l12.75,24.25h-10.64l-12.51-23.44h-14.29c-.89,0-1.38.45-1.38,1.53v21.92h-9.58v-23.98c0-6.83,2.6-9.61,8.61-9.61h21.36c5.44,0,7.63-4.13,7.63-8.44s-2.35-7.99-7.63-7.99h-30.05v-10.6h29.73Z"/>
    </g>
    <rect class="cls-4" x="158.07" y="59.4" width="29.01" height="31.81" rx="2.83" ry="2.83"/>
    <rect class="cls-4" x="216.2" y="148.05" width="29.01" height="31.81" rx="2.83" ry="2.83"/>
    <rect class="cls-4" x="283.31" y="86.3" width="29.01" height="31.81" rx="2.83" ry="2.83"/>
    <rect class="cls-4" x="230.7" y="79.58" width="29.01" height="31.81" rx="2.83" ry="2.83"/>
    <rect class="cls-3" x="248" y="102.2" width="18.44" height="18.38"/>
    <rect class="cls-3" x="266.44" y="127.71" width="29.01" height="31.81"/>
    <rect class="cls-3" x="301.67" y="79.58" width="18.44" height="18.38"/>
  </g>
</svg>